HIERARCHY
ROOT hip
{
	OFFSET 0.000000 0.000000 0.000000 
	CHANNELS 6 Xposition Yposition Zposition Xrotation Zrotation Yrotation
	JOINT abdomen
	{
		OFFSET 0.000000 3.402643 0.000000 
		CHANNELS 3 Xrotation Zrotation Yrotation
		JOINT chest
		{
			OFFSET 0.000000 8.438565 -0.680529 
			CHANNELS 3 Xrotation Zrotation Yrotation
			JOINT neck
			{
				OFFSET 0.000000 10.207942 -0.272212 
				CHANNELS 3 Xrotation Zrotation Yrotation
				JOINT head
				{
					OFFSET 0.000000 3.130431 0.000000 
					CHANNELS 3 Xrotation Zrotation Yrotation
					End Site
					{
						OFFSET 0.000000 3.130435 0.000000 
					}
				}
			}
			JOINT lCollar
			{
				OFFSET 3.470700 6.669187 -0.816635 
				CHANNELS 3 Yrotation Zrotation Xrotation
				JOINT lShldr
				{
					OFFSET 3.198488 0.000000 0.000000 
					CHANNELS 3 Zrotation Yrotation Xrotation
					JOINT lForeArm
					{
						OFFSET 10.139888 0.000000 0.000000 
						CHANNELS 3 Yrotation Zrotation Xrotation
						JOINT lHand
						{
							OFFSET 8.370511 0.000000 0.000000 
							CHANNELS 3 Zrotation Yrotation Xrotation
							End Site
							{
								OFFSET 4.083176 0.000000 0.000000 
							}
						}
					}
				}
			}
			JOINT rCollar
			{
				OFFSET -3.470700 6.669187 -0.816635 
				CHANNELS 3 Yrotation Zrotation Xrotation
				JOINT rShldr
				{
					OFFSET -3.198488 0.000000 0.000000 
					CHANNELS 3 Zrotation Yrotation Xrotation
					JOINT rForeArm
					{
						OFFSET -10.139888 0.000000 0.000000 
						CHANNELS 3 Yrotation Zrotation Xrotation
						JOINT rHand
						{
							OFFSET -8.370511 0.000000 0.000000 
							CHANNELS 3 Zrotation Yrotation Xrotation
							End Site
							{
								OFFSET -4.083176 0.000000 0.000000 
							}
						}
					}
				}
			}
		}
	}
	JOINT lThigh
	{
		OFFSET 5.308129 -1.633274 1.361059 
		CHANNELS 3 Xrotation Zrotation Yrotation
		JOINT lShin
		{
			OFFSET -2.041588 -20.007561 0.000000 
			CHANNELS 3 Xrotation Zrotation Yrotation
			JOINT lFoot
			{
				OFFSET 0.000000 -19.190928 -1.224953 
				CHANNELS 3 Xrotation Yrotation Zrotation
				End Site
				{
					OFFSET 0.000000 -2.449906 4.627600 
				}
			}
		}
	}
	JOINT rThigh
	{
		OFFSET -5.308129 -1.633274 1.361059 
		CHANNELS 3 Xrotation Zrotation Yrotation
		JOINT rShin
		{
			OFFSET 2.041588 -20.007561 0.000000 
			CHANNELS 3 Xrotation Zrotation Yrotation
			JOINT rFoot
			{
				OFFSET 0.000000 -19.190928 -1.224953 
				CHANNELS 3 Xrotation Yrotation Zrotation
				End Site
				{
					OFFSET 0.000000 -2.449906 4.627600 
				}
			}
		}
	}
}
MOTION
Frames: 13
Frame Time: 0.016667
-8.758899 43.938988 -46.740070 -15.488300 -0.312500 102.939003 -39.119801 -1.817320 1.578360 38.369099 0.585938 0.087991 10.847000 31.723900 -27.273701 5.615230 14.082000 -13.093300 2.000000 -2.000000 0.000000 -41.081402 7.030720 149.554993 26.997101 1.086270 0.103217 -1.385820 3.332340 -156.126007 -2.000000 2.000000 0.000000 27.780500 28.945999 57.763802 -7.740500 -1.089160 0.054675 1.376070 -3.371410 -145.306000 -33.725857 13.469568 -0.277672 69.532867 0.850441 8.547568 -13.389483 0.296454 -3.627940 -15.536679 16.221121 8.268031 23.264439 -4.163427 -3.951906 -3.406438 -10.306721 -4.651895 
-7.567338 43.960522 -47.761787 -16.367201 -1.425780 101.171997 -39.381100 -1.555580 1.386380 38.339802 0.312500 0.087944 11.096900 31.386299 -27.794901 5.693360 13.691400 -13.378900 2.000000 -2.000000 0.000000 -41.295898 6.986750 149.910995 26.801800 1.086270 0.103217 -1.376030 3.322580 -156.837997 -2.000000 2.000000 0.000000 28.323799 27.792801 68.042099 -8.717060 -1.089160 0.054675 1.356470 -3.332360 -158.322006 -35.554897 14.057006 -2.093011 65.854233 1.320695 8.340005 -14.771523 1.732494 -3.368145 -15.046392 16.711641 8.231637 22.816242 -4.254595 -3.833155 -3.749787 -10.983223 -4.961843 
-6.319520 44.053097 -48.759575 -15.898400 -2.226560 99.062103 -39.420799 -1.580720 1.291510 38.359402 0.527344 0.029387 10.475600 31.565800 -27.579800 5.400390 13.964800 -13.239800 2.000000 -2.000000 0.000000 -41.707500 6.996820 148.815994 26.304001 1.086850 0.093471 -1.385820 3.332340 -155.832993 -2.000000 2.000000 0.000000 27.568001 27.194201 63.980400 -8.209250 -1.089160 0.054675 1.366280 -3.361650 -151.057007 -35.915028 13.585651 -2.940021 61.579353 1.880581 8.018707 -16.687490 2.485538 -3.305830 -14.694118 16.225977 7.352350 24.072069 -4.558871 -3.841727 -3.663136 -11.979059 -5.171047 
-5.056029 44.132092 -49.683334 -16.230499 -2.626950 96.894501 -39.166302 -1.434420 0.986350 38.623100 0.527344 -0.048738 10.119800 31.901300 -27.806499 5.458980 14.169900 -13.269100 2.000000 -2.000000 0.000000 -41.837799 7.120800 148.664993 26.079399 1.086850 0.093471 -1.385820 3.332340 -155.677002 -2.000000 2.000000 0.000000 26.580200 27.109800 62.063801 -8.082300 -1.089160 0.054675 1.376060 -3.361640 -147.658997 -35.836597 13.922705 -4.365906 57.323429 2.494852 7.614369 -17.605856 2.976378 -3.227521 -14.540997 16.638876 6.895267 26.319544 -4.758743 -4.064041 -3.827998 -12.257924 -5.191077 
-3.779283 44.118862 -50.564518 -15.957000 -3.154300 93.993599 -39.025700 -1.203570 1.379550 38.691399 0.341797 0.185605 8.962760 31.722401 -28.573000 5.000000 14.150400 -13.535200 2.000000 -2.000000 0.000000 -41.679001 6.196490 147.636993 25.542299 1.086850 0.093471 -1.385830 3.342100 -154.300003 -2.000000 2.000000 0.000000 26.022800 26.632200 58.416698 -7.760030 -1.089160 0.054675 1.376080 -3.381170 -143.498993 -34.906757 13.822485 -5.546741 52.937698 3.133314 7.141582 -19.035818 2.686363 -3.283361 -15.409236 16.467226 7.159272 30.595682 -4.889362 -4.500027 -4.254032 -11.663403 -4.992326 
-2.466577 44.102112 -51.452213 -14.033200 -3.193360 90.771500 -38.459499 -1.468770 1.812710 39.121101 0.683594 0.273437 9.030490 32.093899 -28.465799 5.224610 14.228500 -13.396000 2.000000 -2.000000 0.000000 -41.490398 5.243540 146.022003 24.712200 1.086850 0.093471 -1.385830 3.342100 -153.313995 -2.000000 2.000000 0.000000 25.568501 26.771700 60.826401 -7.799100 -1.089160 0.054675 1.376070 -3.371410 -146.399994 -32.398438 11.966611 -6.809140 48.268219 3.698192 6.614706 -19.031078 2.591166 -3.305747 -16.980268 14.527408 7.279562 37.470943 -4.837636 -5.234492 -4.169765 -8.915130 -4.302312 
-1.150748 43.924618 -52.313507 -12.763700 -2.783200 87.216301 -37.804401 -1.371620 1.765860 39.541000 1.523440 0.263931 9.092460 31.134600 -28.373301 5.058590 13.779300 -13.369100 2.000000 -2.000000 0.000000 -42.101002 4.985210 143.945007 24.331301 1.086850 0.093471 -1.385830 3.342100 -151.839005 -2.000000 2.000000 0.000000 23.743999 28.317200 54.754398 -7.017850 -1.089160 0.054675 1.376080 -3.381170 -140.901993 -29.679478 10.589432 -9.051083 45.353687 4.152731 6.217090 -17.721272 3.709739 -2.930453 -18.857388 13.383259 8.601126 45.142418 -4.380075 -6.103667 0.295524 -8.682183 -3.511719 
0.189397 43.608589 -53.169975 -10.478500 -2.509770 83.398399 -38.145100 -2.122820 3.017250 38.584000 0.185547 0.605500 9.102410 31.321899 -28.526100 5.009760 13.964800 -13.564500 2.000000 -2.000000 0.000000 -40.305000 4.332730 144.852997 24.009100 1.086850 0.093471 -1.385830 3.342100 -152.376007 -2.000000 2.000000 0.000000 24.194700 27.815800 53.892200 -6.881130 -1.089160 0.054675 1.376090 -3.390940 -140.110992 -26.739391 8.517997 -7.766883 45.040974 4.132132 6.199901 -17.604280 1.475397 -3.557225 -21.738220 11.076571 10.207826 52.796604 -3.655261 -6.887949 5.426501 -6.454557 -2.731742 
1.540539 43.079529 -53.911858 -8.027340 -2.656310 79.511002 -38.471802 -2.657870 3.509670 38.203098 0.214844 0.644531 8.964290 30.732800 -28.169600 4.726560 13.955100 -13.454700 2.000000 -2.000000 0.000000 -39.368301 4.451240 144.886993 23.901600 1.086850 0.093471 -1.385830 3.342100 -152.688995 -2.000000 2.000000 0.000000 24.014099 28.750799 53.716499 -7.213160 -1.089160 0.054675 1.376090 -3.390940 -139.945007 -25.039278 6.290723 -3.880169 45.775509 3.972360 6.327492 -19.833422 0.712824 -3.850027 -25.245022 8.771767 11.607442 58.787670 -2.846193 -7.500995 10.457951 -2.519411 -2.396314 
2.973278 42.954185 -54.575325 -6.044920 -1.699220 76.122803 -38.291698 -3.072850 3.822020 37.890598 0.566406 0.644531 8.333730 30.558901 -28.196800 4.423830 13.974600 -13.415600 2.000000 -2.000000 0.000000 -38.400600 3.593220 144.035004 23.667299 1.086850 0.093471 -1.385830 3.342100 -151.546005 -2.000000 2.000000 0.000000 23.613300 29.155300 57.458199 -7.428000 -1.089160 0.054675 1.376070 -3.371410 -144.026993 -22.379591 4.139823 0.173626 46.037384 3.907169 6.367539 -21.266832 3.852321 -2.607982 -27.035789 6.951890 12.815557 62.994034 -2.267915 -7.864579 11.024981 1.746008 -2.637380 
4.382438 42.833260 -55.143192 -4.003910 -0.585938 73.339897 -38.363300 -3.468070 3.657890 37.265598 1.816410 0.429997 7.497170 30.934999 -28.359800 4.179690 14.453100 -13.454600 2.000000 -2.000000 0.000000 -37.993099 3.289400 143.705002 23.950500 1.086850 0.093471 -1.385830 3.342100 -151.595001 -2.000000 2.000000 0.000000 23.744400 29.323200 65.183998 -8.267850 -1.089160 0.054675 1.366270 -3.351890 -152.345993 -19.882917 1.577736 3.728029 45.844173 3.882677 6.387814 -22.189629 4.247442 -2.448871 -28.490665 4.875429 13.402858 65.225250 -1.919722 -8.064911 8.347444 8.107571 -2.715219 
5.855012 42.621899 -55.565140 -4.267580 -1.123050 70.986099 -38.248901 -3.421050 3.337890 37.587898 2.070310 0.283554 7.761530 31.355400 -28.482599 4.365230 14.453100 -13.532700 2.000000 -2.000000 0.000000 -37.160702 1.841860 142.488007 24.136000 1.086850 0.093471 -1.385830 3.342100 -151.242996 -2.000000 2.000000 0.000000 23.572100 29.818800 63.435699 -8.277610 -1.089160 0.054675 1.366270 -3.351890 -152.766006 -18.831146 1.585779 5.327747 46.452843 3.889225 6.425596 -24.353111 3.755020 -2.583531 -30.167913 5.075016 11.235691 64.511963 -1.744113 -8.145351 5.317102 11.206828 -2.343087 
7.367208 42.517479 -55.941025 -5.097660 -1.933590 68.925499 -38.632099 -3.456410 3.215590 37.216801 1.806640 0.244448 8.187490 31.799700 -28.247900 4.130860 14.580100 -13.708500 2.000000 -2.000000 0.000000 -35.474098 1.075630 144.274002 25.288401 1.086850 0.093471 -1.385830 3.342100 -152.873993 -2.000000 2.000000 0.000000 25.068899 29.254700 63.506599 -8.502220 -1.089160 0.054675 1.366270 -3.351890 -153.830994 -17.818228 2.235069 7.107329 46.842964 3.924309 6.447590 -26.469580 2.788486 -3.004349 -31.072193 5.719470 7.970208 61.949207 -1.747472 -8.095356 1.828741 8.590393 -2.107333 
